# xmcd
#
# Track frame offsets: 
#        150
#        14137
#        26035
#        40385
#        58887
#        76357
#        91432
#        105837
#        126735
#        144736
#        161036
#        176138
#        197231
#        218881
#        232479
#        242176
#
# Disc length: 3384 seconds
#
# Revision: 0
# Processed by: cddbd v1.4PL0 Copyright (c) Steve Scherf et al.
# Submitted via: ExactAudioCopy v0.90b3
#
DISCID=fb0d3610
DTITLE=John Denver - The Unplugged Collection
DYEAR=1996
DGENRE=Country
TTITLE0=Annie's Song
TTITLE1=Perhaps Love
TTITLE2=Dreamland Express
TTITLE3=Rocky Mountain High
TTITLE4=Seasons of the Heart
TTITLE5=Whispering jesse
TTITLE6=Take Me Home, Country Roads
TTITLE7=For You
TTITLE8=Windsong
TTITLE9=Leaving on a Jetplane
TTITLE10=I'm Sorry
TTITLE11=Back Home Again
TTITLE12=Sunshine on my Shoulders
TTITLE13=Thank God I'm a Country Boy
TTITLE14=Christmas for Cowboys
TTITLE15=Love Again
EXTD=
EXTT0=
EXTT1=
EXTT2=
EXTT3=
EXTT4=
EXTT5=
EXTT6=
EXTT7=
EXTT8=
EXTT9=
EXTT10=
EXTT11=
EXTT12=
EXTT13=
EXTT14=
EXTT15=
PLAYORDER=
